<svg xmlns="http://www.w3.org/2000/svg" viewBox="0 0 64 64" role="img" aria-label="Agroforestry Carbon Field Guide favicon">
  <defs>
    <linearGradient id="leafGradient" x1="32" y1="20" x2="50" y2="42" gradientUnits="userSpaceOnUse">
      <stop offset="0" stop-color="#b7e85a"/>
      <stop offset="1" stop-color="#5fa83e"/>
    </linearGradient>
    <linearGradient id="nodeGradient" x1="0" y1="0" x2="1" y2="1">
      <stop offset="0" stop-color="#d3f06a"/>
      <stop offset="1" stop-color="#9bc94a"/>
    </linearGradient>
  </defs>
  <circle cx="32" cy="32" r="29" fill="#fbfbf4" stroke="#315c2b" stroke-width="3"/>
  <path d="M20 34 H30 L34 40 V48" fill="none" stroke="#315c2b" stroke-width="5" stroke-linecap="round" stroke-linejoin="round"/>
  <path d="M34 40 L38 33" fill="none" stroke="#315c2b" stroke-width="5" stroke-linecap="round"/>
  <path d="M33 29 L29 20" fill="none" stroke="#315c2b" stroke-width="5" stroke-linecap="round"/>
  <path d="M37 28 C42 18 54 18 54 18 C54 18 54 33 44 40 C39 43 34 41 33 36 C32 33 34 30 37 28 Z"
        fill="url(#leafGradient)" stroke="#315c2b" stroke-width="3" stroke-linejoin="round"/>
  <path d="M36 37 C41 33 45 29 50 22" fill="none" stroke="#315c2b" stroke-width="2.5" stroke-linecap="round"/>
  <circle cx="17" cy="34" r="6" fill="#315c2b"/>
  <circle cx="17" cy="34" r="3.8" fill="url(#nodeGradient)"/>
  <circle cx="27" cy="16" r="6" fill="#315c2b"/>
  <circle cx="27" cy="16" r="3.8" fill="url(#nodeGradient)"/>
  <circle cx="34" cy="51" r="6" fill="#315c2b"/>
  <circle cx="34" cy="51" r="3.8" fill="url(#nodeGradient)"/>
</svg>
